<?xml version="1.0" standalone="no"?><!DOCTYPE svg PUBLIC "-//W3C//DTD SVG 1.1//EN" "http://www.w3.org/Graphics/SVG/1.1/DTD/svg11.dtd"><svg class="icon" width="200px" height="200.00px" viewBox="0 0 1024 1024" version="1.1" xmlns="http://www.w3.org/2000/svg"><path d="M512 512m-512 0a512 512 0 1 0 1024 0 512 512 0 1 0-1024 0Z" fill="#FFFFFF" /><path d="M857.6 878.933333v12.8c-89.6 85.333333-213.333333 132.266667-345.6 132.266667-136.533333 0-264.533333-55.466667-358.4-145.066667h704zM1024 512c0 55.466667-8.533333 106.666667-21.333333 153.6H21.333333C8.533333 618.666667 0 567.466667 0 512v-12.8-17.066667-8.533333c0-8.533333 0-17.066667 4.266667-25.6h1015.466666c4.266667 17.066667 4.266667 42.666667 4.266667 64zM938.666667 230.4H85.333333c4.266667-4.266667 8.533333-8.533333 8.533334-17.066667 38.4-55.466667 89.6-102.4 145.066666-136.533333 12.8-8.533333 25.6-12.8 38.4-21.333333C349.866667 21.333333 426.666667 0 512 0c34.133333 0 64 4.266667 93.866667 8.533333 140.8 25.6 260.266667 106.666667 332.8 221.866667z" fill="#DF082D" /><path d="M605.866667 8.533333v657.066667H21.333333C8.533333 618.666667 0 567.466667 0 512 0 230.4 230.4 0 512 0c34.133333 0 64 4.266667 93.866667 8.533333z" fill="#00236A" /><path d="M409.6 413.866667l25.6 46.933333 55.466667 8.533333-38.4 38.4 8.533333 51.2-51.2-25.6-46.933333 25.6 8.533333-51.2-38.4-38.4 55.466667-8.533333zM409.6 102.4l25.6 46.933333 55.466667 8.533334-38.4 38.4 8.533333 51.2-51.2-25.6-46.933333 25.6 8.533333-51.2-38.4-38.4 55.466667-8.533334zM234.666667 260.266667l25.6 46.933333 51.2 8.533333-38.4 38.4 8.533333 55.466667L234.666667 384l-46.933334 25.6 8.533334-55.466667-38.4-38.4 51.2-8.533333zM285.866667 102.4l-46.933334-25.6c12.8-8.533333 25.6-12.8 38.4-21.333333l8.533334 46.933333zM102.4 260.266667l-25.6-12.8c0-8.533333 4.266667-12.8 8.533333-17.066667 4.266667-4.266667 8.533333-8.533333 8.533334-17.066667v17.066667l8.533333 29.866667zM93.866667 512l8.533333 51.2-46.933333-25.6-51.2 25.6 12.8-51.2-17.066667-12.8v-17.066667-8.533333l29.866667-4.266667 12.8-25.6 12.8-25.6 12.8 25.6 8.533333 21.333334 55.466667 8.533333-38.4 38.4z" fill="#FFFFFF" /></svg>